# xmcd
#
# Track frame offsets:
#	150
#	11874
#	26876
#	42138
#	54777
#	69143
#	86877
#	100954
#	121089
#	132569
#	146872
#	161429
#	176262
#	189886
#
# Disc length: 2687 seconds
#
# Revision: 3
# Processed by: cddbd v1.5.1PL0 Copyright (c) Steve Scherf et al.
# Submitted via: audiograbber 1.83.01
#
DISCID=b60a7d0e
DTITLE=ΕΔλένη Βιτάλη - Παράπονα λαικα
DYEAR=2000
DGENRE=Country
TTITLE0=Ερωτά μου αγιάτρευτε
TTITLE1=Αν μάγαπούσες λίγο
TTITLE2=Βάρα μου το ωτέφι
TTITLE3=Οσα μου είπαν σάγαπώ
TTITLE4=Τώρα ξέρω οτι φταίω
TTITLE5=Δε με πόνεσε κανείς
TTITLE6=Αν'άψτε φλόγες και φωτιές
TTITLE7=Αλλον έχεις αγκαλιά
TTITLE8=Μάτια μου μαλαματένια
TTITLE9=Βροχή τα παράπονα
TTITLE10=Κυριακή σε είχα βρεί
TTITLE11=Τα καλύτερα μας χρόνια
TTITLE12=Ελληνάκι πατριώτη
TTITLE13=Κύριε αστυφύλακα
EXTD=
EXTT0=
EXTT1=
EXTT2=
EXTT3=
EXTT4=
EXTT5=
EXTT6=
EXTT7=
EXTT8=
EXTT9=
EXTT10=
EXTT11=
EXTT12=
EXTT13=
PLAYORDER=
